<svg width="4003" height="1797" xmlns="http://www.w3.org/2000/svg" xmlns:xlink="http://www.w3.org/1999/xlink" xml:space="preserve" overflow="hidden"><g transform="translate(-166 -575)"><path d="M3533 1035.2C3533 1029.57 3537.57 1025 3543.2 1025L4153.8 1025C4159.43 1025 4164 1029.57 4164 1035.2L4164 1193.8C4164 1199.43 4159.43 1204 4153.8 1204L3543.2 1204C3537.57 1204 3533 1199.43 3533 1193.8Z" stroke="#006FB8" stroke-width="10.3125" stroke-linejoin="round" stroke-miterlimit="10" fill="#FFFFFF" fill-rule="evenodd"/><text fill="#474846" font-family="Calibri,Calibri_MSFontService,sans-serif" font-weight="700" font-size="64" transform="matrix(1 0 0 1 3638.22 1136)">eCMR</text><text fill="#474846" font-family="Calibri,Calibri_MSFontService,sans-serif" font-weight="700" font-size="64" transform="matrix(1 0 0 1 3810.67 1136)">Instances</text><path d="M207 1356.14C207 1350.54 211.541 1346 217.144 1346L1021.86 1346C1027.46 1346 1032 1350.54 1032 1356.14L1032 1513.86C1032 1519.46 1027.46 1524 1021.86 1524L217.144 1524C211.541 1524 207 1519.46 207 1513.86Z" stroke="#006FB8" stroke-width="10.3125" stroke-linejoin="round" stroke-miterlimit="10" fill="#FFFFFF" fill-rule="evenodd"/><text fill="#474846" font-family="Calibri,Calibri_MSFontService,sans-serif" font-weight="700" font-size="64" transform="matrix(1 0 0 1 560.711 1456)">TMS</text><path d="M1222 988.405C1222 953.94 1249.94 926 1284.4 926L2760.6 926C2795.06 926 2823 953.94 2823 988.405L2823 1958.6C2823 1993.06 2795.06 2021 2760.6 2021L1284.4 2021C1249.94 2021 1222 1993.06 1222 1958.6Z" stroke="#006FB8" stroke-width="10.3125" stroke-linejoin="round" stroke-miterlimit="10" fill="none" fill-rule="evenodd"/><text fill="#474846" font-family="Calibri,Calibri_MSFontService,sans-serif" font-weight="700" font-size="64" transform="matrix(1 0 0 1 1647.28 1021)">eCMR</text><text fill="#474846" font-family="Calibri,Calibri_MSFontService,sans-serif" font-weight="700" font-size="64" transform="matrix(1 0 0 1 1805.41 1021)">-</text><text fill="#474846" font-family="Calibri,Calibri_MSFontService,sans-serif" font-weight="700" font-size="64" transform="matrix(1 0 0 1 1824.89 1021)">backend (</text><text fill="#474846" font-family="Calibri,Calibri_MSFontService,sans-serif" font-weight="700" font-size="64" transform="matrix(1 0 0 1 2082.08 1021)">SpringBoot</text><text fill="#474846" font-family="Calibri,Calibri_MSFontService,sans-serif" font-weight="700" font-size="64" transform="matrix(1 0 0 1 2377.7 1021)">)</text><path d="M171 1059.8C171 1053.28 176.281 1048 182.797 1048L984.203 1048C990.718 1048 996 1053.28 996 1059.8L996 1243.2C996 1249.72 990.718 1255 984.203 1255L182.797 1255C176.281 1255 171 1249.72 171 1243.2Z" stroke="#006FB8" stroke-width="10.3125" stroke-linejoin="round" stroke-miterlimit="10" fill="#FFFFFF" fill-rule="evenodd"/><text fill="#474846" font-family="Calibri,Calibri_MSFontService,sans-serif" font-weight="700" font-size="64" transform="matrix(1 0 0 1 337.429 1135)">User Management </text><text fill="#474846" font-family="Calibri,Calibri_MSFontService,sans-serif" font-weight="700" font-size="64" transform="matrix(1 0 0 1 391.077 1212)">(</text><text fill="#474846" font-family="Calibri,Calibri_MSFontService,sans-serif" font-weight="700" font-size="64" transform="matrix(1 0 0 1 411.129 1212)">Keycloak</text><text fill="#474846" font-family="Calibri,Calibri_MSFontService,sans-serif" font-weight="700" font-size="64" transform="matrix(1 0 0 1 645.727 1212)">, AD</text><text fill="#474846" font-family="Calibri,Calibri_MSFontService,sans-serif" font-weight="700" font-size="64" transform="matrix(1 0 0 1 756.299 1212)">)</text><path d="M2542 1011.14C2542 1005.54 2546.54 1001 2552.14 1001L3162.86 1001C3168.46 1001 3173 1005.54 3173 1011.14L3173 1168.86C3173 1174.46 3168.46 1179 3162.86 1179L2552.14 1179C2546.54 1179 2542 1174.46 2542 1168.86Z" stroke="#006FB8" stroke-width="10.3125" stroke-linejoin="round" stroke-miterlimit="10" fill="#FFFFFF" fill-rule="evenodd"/><text fill="#474846" font-family="Calibri,Calibri_MSFontService,sans-serif" font-weight="700" font-size="64" transform="matrix(1 0 0 1 2695.65 1112)">external </text><text fill="#474846" font-family="Calibri,Calibri_MSFontService,sans-serif" font-weight="700" font-size="64" transform="matrix(1 0 0 1 2928.76 1112)">API</text><path d="M171 1311.14C171 1305.54 175.541 1301 181.144 1301L985.856 1301C991.458 1301 996 1305.54 996 1311.14L996 1468.86C996 1474.46 991.458 1479 985.856 1479L181.144 1479C175.541 1479 171 1474.46 171 1468.86Z" stroke="#006FB8" stroke-width="10.3125" stroke-linejoin="round" stroke-miterlimit="10" fill="#FFFFFF" fill-rule="evenodd"/><text fill="#474846" font-family="Calibri,Calibri_MSFontService,sans-serif" font-weight="700" font-size="64" transform="matrix(1 0 0 1 524.704 1411)">TMS</text><path d="M1610 2177.14C1610 2171.54 1614.54 2167 1620.14 2167L2424.86 2167C2430.46 2167 2435 2171.54 2435 2177.14L2435 2334.86C2435 2340.46 2430.46 2345 2424.86 2345L1620.14 2345C1614.54 2345 1610 2340.46 1610 2334.86Z" stroke="#006FB8" stroke-width="10.3125" stroke-linejoin="round" stroke-miterlimit="10" fill="#FFFFFF" fill-rule="evenodd"/><text fill="#474846" font-family="Calibri,Calibri_MSFontService,sans-serif" font-weight="700" font-size="64" transform="matrix(1 0 0 1 1940.89 2239)">DBMS</text><text fill="#474846" font-family="Calibri,Calibri_MSFontService,sans-serif" font-weight="700" font-size="64" transform="matrix(1 0 0 1 1686.79 2316)">(Microsoft</text><text fill="#474846" font-family="Calibri,Calibri_MSFontService,sans-serif" font-weight="700" font-size="64" transform="matrix(1 0 0 1 1979.34 2316)">SQL,</text><text fill="#474846" font-family="Calibri,Calibri_MSFontService,sans-serif" font-weight="700" font-size="64" transform="matrix(1 0 0 1 2112.63 2316)">Postgres</text><text fill="#474846" font-family="Calibri,Calibri_MSFontService,sans-serif" font-weight="700" font-size="64" transform="matrix(1 0 0 1 2338.2 2316)">)</text><path d="M1231 590.144C1231 584.541 1235.54 580 1241.14 580L2805.86 580C2811.46 580 2816 584.541 2816 590.144L2816 747.856C2816 753.458 2811.46 758 2805.86 758L1241.14 758C1235.54 758 1231 753.458 1231 747.856Z" stroke="#006FB8" stroke-width="10.3125" stroke-linejoin="round" stroke-miterlimit="10" fill="#FFFFFF" fill-rule="evenodd"/><text fill="#474846" font-family="Calibri,Calibri_MSFontService,sans-serif" font-weight="700" font-size="64" transform="matrix(1 0 0 1 1686.77 690)">eCMR</text><text fill="#474846" font-family="Calibri,Calibri_MSFontService,sans-serif" font-weight="700" font-size="64" transform="matrix(1 0 0 1 1844.9 690)">-</text><text fill="#474846" font-family="Calibri,Calibri_MSFontService,sans-serif" font-weight="700" font-size="64" transform="matrix(1 0 0 1 1864.38 690)">f</text><text fill="#474846" font-family="Calibri,Calibri_MSFontService,sans-serif" font-weight="700" font-size="64" transform="matrix(1 0 0 1 1884.43 690)">rontend</text><text fill="#474846" font-family="Calibri,Calibri_MSFontService,sans-serif" font-weight="700" font-size="64" transform="matrix(1 0 0 1 2111.44 690)">(Angular)</text><path d="M3502 1011.14C3502 1005.54 3506.54 1001 3512.14 1001L4122.86 1001C4128.46 1001 4133 1005.54 4133 1011.14L4133 1168.86C4133 1174.46 4128.46 1179 4122.86 1179L3512.14 1179C3506.54 1179 3502 1174.46 3502 1168.86Z" stroke="#006FB8" stroke-width="10.3125" stroke-linejoin="round" stroke-miterlimit="10" fill="#FFFFFF" fill-rule="evenodd"/><text fill="#474846" font-family="Calibri,Calibri_MSFontService,sans-serif" font-weight="700" font-size="64" transform="matrix(1 0 0 1 3606.96 1112)">eCMR</text><text fill="#474846" font-family="Calibri,Calibri_MSFontService,sans-serif" font-weight="700" font-size="64" transform="matrix(1 0 0 1 3779.41 1112)">Instances</text><path d="M1.2701 22.9101 1.93351 145.24-0.358121 145.253-1.02154 22.9225ZM-13.6007 27.5742 0 0 13.8989 27.425ZM14.5126 140.589 0.911975 168.163-12.987 140.738Z" fill="#4472C4" transform="matrix(1 0 0 -1 2023 926.163)"/><path d="M3195.92 1088.85 3479.27 1088.85 3479.27 1091.15 3195.92 1091.15ZM3200.5 1103.75 3173 1090 3200.5 1076.25ZM3474.68 1076.25 3502.18 1090 3474.68 1103.75Z" fill="#4472C4"/><path d="M1356 1625.54C1356 1619.72 1360.72 1615 1366.54 1615L1976.46 1615C1982.28 1615 1987 1619.72 1987 1625.54L1987 1789.46C1987 1795.28 1982.28 1800 1976.46 1800L1366.54 1800C1360.72 1800 1356 1795.28 1356 1789.46Z" stroke="#006FB8" stroke-width="10.3125" stroke-linejoin="round" stroke-miterlimit="10" fill="#FFFFFF" fill-rule="evenodd"/><text fill="#474846" font-family="Calibri,Calibri_MSFontService,sans-serif" font-weight="400" font-size="64" transform="matrix(1 0 0 1 1527.53 1690)">Create PD</text><text fill="#474846" font-family="Calibri,Calibri_MSFontService,sans-serif" font-weight="400" font-size="64" transform="matrix(1 0 0 1 1786.07 1690)">F</text><text fill="#474846" font-family="Calibri,Calibri_MSFontService,sans-serif" font-weight="400" font-size="64" transform="matrix(1 0 0 1 1460.84 1767)">(Jasper Reports)</text><path d="M2046 1619.71C2046 1613.8 2050.8 1609 2056.71 1609L2666.29 1609C2672.2 1609 2677 1613.8 2677 1619.71L2677 1786.29C2677 1792.2 2672.2 1797 2666.29 1797L2056.71 1797C2050.8 1797 2046 1792.2 2046 1786.29Z" stroke="#006FB8" stroke-width="10.3125" stroke-linejoin="round" stroke-miterlimit="10" fill="#FFFFFF" fill-rule="evenodd"/><text fill="#474846" font-family="Calibri,Calibri_MSFontService,sans-serif" font-weight="400" font-size="55" transform="matrix(1 0 0 1 2169.39 1683)">&lt;&lt;</text><text fill="#474846" font-family="Calibri,Calibri_MSFontService,sans-serif" font-weight="400" font-size="55" transform="matrix(1 0 0 1 2224.39 1683)">dependency</text><text fill="#474846" font-family="Calibri,Calibri_MSFontService,sans-serif" font-weight="400" font-size="55" transform="matrix(1 0 0 1 2498.25 1683)">&gt;&gt;</text><text fill="#474846" font-family="Calibri,Calibri_MSFontService,sans-serif" font-weight="700" font-size="64" transform="matrix(1 0 0 1 2117.24 1758)">eSEAL</text><text fill="#474846" font-family="Calibri,Calibri_MSFontService,sans-serif" font-weight="400" font-size="64" transform="matrix(1 0 0 1 2290.62 1758)">(</text><text fill="#474846" font-family="Calibri,Calibri_MSFontService,sans-serif" font-weight="400" font-size="64" transform="matrix(1 0 0 1 2310.1 1758)">sign</text><text fill="#474846" font-family="Calibri,Calibri_MSFontService,sans-serif" font-weight="400" font-size="64" transform="matrix(1 0 0 1 2414.37 1758)">/</text><text fill="#474846" font-family="Calibri,Calibri_MSFontService,sans-serif" font-weight="400" font-size="64" transform="matrix(1 0 0 1 2439.01 1758)">verify</text><text fill="#474846" font-family="Calibri,Calibri_MSFontService,sans-serif" font-weight="400" font-size="64" transform="matrix(1 0 0 1 2585.95 1758)">)</text><path d="M1356 1441.86C1356 1437.52 1359.52 1434 1363.86 1434L1979.14 1434C1983.48 1434 1987 1437.52 1987 1441.86L1987 1564.14C1987 1568.48 1983.48 1572 1979.14 1572L1363.86 1572C1359.52 1572 1356 1568.48 1356 1564.14Z" stroke="#006FB8" stroke-width="10.3125" stroke-linejoin="round" stroke-miterlimit="10" fill="#FFFFFF" fill-rule="evenodd"/><text fill="#474846" font-family="Calibri,Calibri_MSFontService,sans-serif" font-weight="400" font-size="64" transform="matrix(1 0 0 1 1510.98 1524)">CRUD </text><text fill="#474846" font-family="Calibri,Calibri_MSFontService,sans-serif" font-weight="400" font-size="64" transform="matrix(1 0 0 1 1675.41 1524)">eCMR</text><path d="M2044 1439.86C2044 1435.52 2047.52 1432 2051.86 1432L2667.14 1432C2671.48 1432 2675 1435.52 2675 1439.86L2675 1562.14C2675 1566.48 2671.48 1570 2667.14 1570L2051.86 1570C2047.52 1570 2044 1566.48 2044 1562.14Z" stroke="#006FB8" stroke-width="10.3125" stroke-linejoin="round" stroke-miterlimit="10" fill="#FFFFFF" fill-rule="evenodd"/><text fill="#474846" font-family="Calibri,Calibri_MSFontService,sans-serif" font-weight="400" font-size="64" transform="matrix(1 0 0 1 2153.56 1523)">eCMR</text><text fill="#474846" font-family="Calibri,Calibri_MSFontService,sans-serif" font-weight="400" font-size="64" transform="matrix(1 0 0 1 2324.29 1523)">Template</text><path d="M1356 1262.92C1356 1258.55 1359.55 1255 1363.92 1255L1979.08 1255C1983.45 1255 1987 1258.55 1987 1262.92L1987 1386.08C1987 1390.45 1983.45 1394 1979.08 1394L1363.92 1394C1359.55 1394 1356 1390.45 1356 1386.08Z" stroke="#006FB8" stroke-width="10.3125" stroke-linejoin="round" stroke-miterlimit="10" fill="#FFFFFF" fill-rule="evenodd"/><text fill="#474846" font-family="Calibri,Calibri_MSFontService,sans-serif" font-weight="400" font-size="64" transform="matrix(1 0 0 1 1512.27 1346)">Share</text><text fill="#474846" font-family="Calibri,Calibri_MSFontService,sans-serif" font-weight="400" font-size="64" transform="matrix(1 0 0 1 1674.13 1346)">eCMR</text><path d="M1356 1081.69C1356 1077.44 1359.44 1074 1363.69 1074L1979.31 1074C1983.56 1074 1987 1077.44 1987 1081.69L1987 1201.31C1987 1205.56 1983.56 1209 1979.31 1209L1363.69 1209C1359.44 1209 1356 1205.56 1356 1201.31Z" stroke="#006FB8" stroke-width="10.3125" stroke-linejoin="round" stroke-miterlimit="10" fill="#FFFFFF" fill-rule="evenodd"/><text fill="#474846" font-family="Calibri,Calibri_MSFontService,sans-serif" font-weight="400" font-size="64" transform="matrix(1 0 0 1 1412.5 1163)">Guest Management</text><path d="M178 1594.14C178 1588.54 182.542 1584 188.144 1584L992.856 1584C998.458 1584 1003 1588.54 1003 1594.14L1003 1751.86C1003 1757.46 998.458 1762 992.856 1762L188.144 1762C182.542 1762 178 1757.46 178 1751.86Z" stroke="#006FB8" stroke-width="10.3125" stroke-linejoin="round" stroke-miterlimit="10" fill="#FFFFFF" fill-rule="evenodd"/><text fill="#474846" font-family="Calibri,Calibri_MSFontService,sans-serif" font-weight="700" font-size="64" transform="matrix(1 0 0 1 514.796 1695)">eMail</text><path d="M1018.92 1165.85 1195.59 1165.85 1195.59 1168.15 1018.92 1168.15ZM1023.5 1180.75 996 1167 1023.5 1153.25ZM1191.01 1153.25 1218.51 1167 1191.01 1180.75Z" fill="#4472C4"/><path d="M1.14589 22.9166 1.14614 122.329-1.14553 122.329-1.14578 22.9166ZM-13.7499 27.5 0 0 13.7501 27.5ZM13.7503 117.745 0.000360892 145.245-13.7497 117.746Z" fill="#4472C4" transform="matrix(1 0 0 -1 2023 2166.25)"/><path d="M1023.92 1677.85 1211.57 1677.85 1211.57 1680.15 1023.92 1680.15ZM1028.5 1692.75 1001 1679 1028.5 1665.25Z" fill="#4472C4"/><path d="M996 1388.85 1183.49 1388.85 1183.49 1391.15 996 1391.15ZM1178.91 1376.25 1206.41 1390 1178.91 1403.75Z" fill="#4472C4"/><text fill="#474846" font-family="Calibri,Calibri_MSFontService,sans-serif" font-weight="400" font-size="64" transform="matrix(1 0 0 1 2061.16 2107)">sql</text><text fill="#474846" font-family="Calibri,Calibri_MSFontService,sans-serif" font-weight="400" font-size="64" transform="matrix(1 0 0 1 1043.83 1603)">smtp</text><text fill="#474846" font-family="Calibri,Calibri_MSFontService,sans-serif" font-weight="400" font-size="64" transform="matrix(1 0 0 1 1019.78 1147)">oAuth</text><path d="M2044 1262.92C2044 1258.55 2047.55 1255 2051.92 1255L2667.08 1255C2671.45 1255 2675 1258.55 2675 1262.92L2675 1386.08C2675 1390.45 2671.45 1394 2667.08 1394L2051.92 1394C2047.55 1394 2044 1390.45 2044 1386.08Z" stroke="#006FB8" stroke-width="10.3125" stroke-linejoin="round" stroke-miterlimit="10" fill="#FFFFFF" fill-rule="evenodd"/><text fill="#474846" font-family="Calibri,Calibri_MSFontService,sans-serif" font-weight="400" font-size="64" transform="matrix(1 0 0 1 2184.73 1346)">Import</text><text fill="#474846" font-family="Calibri,Calibri_MSFontService,sans-serif" font-weight="400" font-size="64" transform="matrix(1 0 0 1 2377.8 1346)">eCMR</text><text fill="#474846" font-family="Calibri,Calibri_MSFontService,sans-serif" font-weight="400" font-size="64" transform="matrix(1 0 0 1 1054.23 1357)">http/</text><text fill="#474846" font-family="Calibri,Calibri_MSFontService,sans-serif" font-weight="400" font-size="64" transform="matrix(1 0 0 1 1071.44 1434)">rest</text><text fill="#474846" font-family="Calibri,Calibri_MSFontService,sans-serif" font-weight="400" font-size="64" transform="matrix(1 0 0 1 3273.35 1059)">http/</text><text fill="#474846" font-family="Calibri,Calibri_MSFontService,sans-serif" font-weight="400" font-size="64" transform="matrix(1 0 0 1 3290.56 1136)">rest</text><path d="M1356 1840.52C1356 1836.37 1359.37 1833 1363.52 1833L2664.48 1833C2668.63 1833 2672 1836.37 2672 1840.52L2672 1957.48C2672 1961.63 2668.63 1965 2664.48 1965L1363.52 1965C1359.37 1965 1356 1961.63 1356 1957.48Z" stroke="#006FB8" stroke-width="10.3125" stroke-linejoin="round" stroke-miterlimit="10" fill="#FFFFFF" fill-rule="evenodd"/><text fill="#474846" font-family="Calibri,Calibri_MSFontService,sans-serif" font-weight="400" font-size="64" transform="matrix(1 0 0 1 1545.96 1921)">DB </text><text fill="#474846" font-family="Calibri,Calibri_MSFontService,sans-serif" font-weight="400" font-size="64" transform="matrix(1 0 0 1 1634.76 1921)">Change Management</text><text fill="#474846" font-family="Calibri,Calibri_MSFontService,sans-serif" font-weight="400" font-size="64" transform="matrix(1 0 0 1 2208.89 1921)">(</text><text fill="#474846" font-family="Calibri,Calibri_MSFontService,sans-serif" font-weight="400" font-size="64" transform="matrix(1 0 0 1 2228.37 1921)">liquibase</text><text fill="#474846" font-family="Calibri,Calibri_MSFontService,sans-serif" font-weight="400" font-size="64" transform="matrix(1 0 0 1 2462.69 1921)">)</text><path d="M582.854 1024.91 582.854 667.854 1208.66 667.854 1208.66 670.146 584 670.146 585.146 669 585.146 1024.91ZM597.75 1020.33 584 1047.83 570.25 1020.33ZM1204.08 655.25 1231.58 669 1204.08 682.75Z" fill="#4472C4"/><text fill="#474846" font-family="Calibri,Calibri_MSFontService,sans-serif" font-weight="400" font-size="64" transform="matrix(1 0 0 1 1880.96 851)">http/ </text><text fill="#474846" font-family="Calibri,Calibri_MSFontService,sans-serif" font-weight="400" font-size="64" transform="matrix(1 0 0 1 2029.55 851)">rest</text><text fill="#474846" font-family="Calibri,Calibri_MSFontService,sans-serif" font-weight="400" font-size="64" transform="matrix(1 0 0 1 612.77 927)">oAuth</text></g></svg>